<?xml version="1.0" encoding="utf-8"?>
<!-- Generator: Adobe Illustrator 20.1.0, SVG Export Plug-In . SVG Version: 6.00 Build 0)  -->
<svg version="1.1" xmlns="http://www.w3.org/2000/svg" xmlns:xlink="http://www.w3.org/1999/xlink" x="0px" y="0px"
	 viewBox="0 0 512 512" style="enable-background:new 0 0 512 512;" xml:space="preserve">
<style type="text/css">
	.st0{display:none;}
	.st1{display:inline;fill:#FF757C;}
	.st2{display:inline;fill:#807D7D;}
	.st3{display:inline;fill:#666666;}
	.st4{display:inline;fill:#FFFFFF;}
	.st5{display:inline;fill:#ECF0F1;}
	.st6{display:inline;fill:#FF5B61;}
	.st7{display:inline;}
	.st8{fill:#DFE1E3;}
	.st9{display:inline;fill:#20D0C2;}
	.st10{display:inline;fill:#FBB429;}
	.st11{display:inline;fill:#15BDB1;}
	.st12{display:inline;fill:#DFE1E3;}
	.st13{display:inline;fill:#FED198;}
	.st14{display:inline;fill:#F0B97D;}
	.st15{fill:#ECF0F1;}
	.st16{fill:#FFFFFF;}
	.st17{display:inline;fill:#FFDEB0;}
	.st18{display:inline;fill:#0E7886;}
	.st19{fill:#E8AF2E;}
	.st20{fill:none;stroke:#403F41;stroke-width:6.2161;stroke-linecap:round;stroke-miterlimit:10;}
	.st21{fill:#A6A8AB;}
	.st22{fill:#221F1F;}
	.st23{fill:none;stroke:#403F41;stroke-width:5.1856;stroke-linecap:round;stroke-miterlimit:10;}
	.st24{fill:#FDE039;}
	.st25{fill:#403F41;}
	.st26{fill:#D3D2CD;}
	.st27{fill:#FECE9A;}
	.st28{fill:#FDCC9B;}
	.st29{fill:#EEB881;}
	.st30{fill:#63453D;}
	.st31{fill:#F1A58D;}
	.st32{fill:#352213;}
	.st33{fill:#1A1819;}
	.st34{fill:#271714;}
	.st35{fill:#F4F3ED;}
	.st36{fill:#F96243;}
	.st37{fill:#C14637;}
	.st38{fill:#3F3D3D;}
	.st39{fill:#302E2E;}
	.st40{fill:#3F3F3F;}
	.st41{fill:#121112;}
</style>
<g id="Layer_1" class="st0">
	<path class="st1" d="M256,0c141.4,0,256,114.6,256,256S397.4,512,256,512C114.6,512,0,397.4,0,256S114.6,0,256,0z"/>
	<path class="st2" d="M14.1,426.7h483.8v16.6c0,9.1-7.5,16.6-16.6,16.6H30.7c-9.1,0-16.6-7.5-16.6-16.6L14.1,426.7L14.1,426.7z"/>
	<path class="st3" d="M189.7,426.7h132.6v4.9c0,2.7-2.2,4.9-4.9,4.9H194.6c-2.7,0-4.9-2.2-4.9-4.9L189.7,426.7L189.7,426.7z"/>
	<path class="st2" d="M60.8,164.4h390.5c4.8,0,8.7,3.9,8.7,8.7v239.3c0,4.8-3.9,8.7-8.7,8.7H60.8c-4.8,0-8.7-3.9-8.7-8.7V173.1
		C52.1,168.3,56,164.4,60.8,164.4z"/>
	<path class="st4" d="M70.3,181.9h371.5v226.4H70.3V181.9z"/>
	<path class="st3" d="M104,421h27v5.6h-27V421z M381,421L381,421h27v5.6h-27V421z"/>
	<path class="st5" d="M139.4,188.9c16.1,0,30.6,6.5,41.2,17.1c10.5,10.5,17,25.1,17,41.2c0,16.1-6.5,30.6-17,41.2
		c-10.5,10.5-25.1,17-41.2,17s-30.6-6.5-41.2-17c-10.5-10.5-17.1-25.1-17.1-41.2c0-16.1,6.5-30.6,17.1-41.2
		C108.8,195.5,123.3,188.9,139.4,188.9z M181.1,279.3L181.1,279.3c-3.7-1.7-8.4-3.1-13.7-4.2c-0.5,1-1,2.1-1.6,3.1
		c-4.3,8.1-10.5,15.3-18.4,21c11.3-1.7,21.5-7.1,29.3-14.8C178.2,282.8,179.7,281.1,181.1,279.3L181.1,279.3z M131.4,299.2
		L131.4,299.2c-8-5.7-14.1-12.9-18.4-21c-0.5-1-1.1-2-1.5-3.1c-5.3,1-10.1,2.4-13.7,4.2c1.4,1.8,2.9,3.5,4.5,5.1
		C109.9,292.1,120.1,297.5,131.4,299.2L131.4,299.2z M94.5,274.7L94.5,274.7c4-2,9-3.5,14.8-4.7c-2.4-6.4-3.7-13.2-4-20H86.8
		C87.3,259,90.1,267.4,94.5,274.7L94.5,274.7z M86.8,244.4L86.8,244.4h18.5c0.3-7.4,1.8-14.8,4.6-21.8c-5.5-1.1-10.5-2.6-14.4-4.4
		C90.4,225.8,87.3,234.7,86.8,244.4L86.8,244.4z M98.8,213.6L98.8,213.6c3.7,1.6,8.3,2.9,13.4,3.8c0.3-0.6,0.6-1.2,0.9-1.7
		c4.3-7.9,10.4-15,18.2-20.6c-11.3,1.7-21.4,7.1-29.2,14.8C101,211.1,99.9,212.3,98.8,213.6z M147.5,195.1L147.5,195.1
		c7.8,5.6,13.9,12.7,18.2,20.6c0.3,0.6,0.6,1.2,0.9,1.8c5.1-1,9.7-2.3,13.4-3.8c-1.1-1.3-2.2-2.5-3.4-3.7
		C168.9,202.2,158.8,196.8,147.5,195.1L147.5,195.1z M183.4,218.2L183.4,218.2c-3.9,1.8-8.9,3.3-14.4,4.4c2.8,6.9,4.3,14.3,4.6,21.7
		H192C191.5,234.7,188.4,225.8,183.4,218.2L183.4,218.2z M192,249.9L192,249.9h-18.5c-0.3,6.8-1.6,13.6-4,20
		c5.7,1.2,10.8,2.8,14.8,4.8C188.8,267.4,191.5,259,192,249.9L192,249.9z M142.2,198.2L142.2,198.2v21.6c6.4-0.1,12.8-0.5,18.7-1.3
		l0,0C156.6,210.5,150.4,203.5,142.2,198.2z M142.2,225.3L142.2,225.3v19.1H168c-0.3-7.1-1.8-14.2-4.6-20.8
		C156.8,224.6,149.5,225.2,142.2,225.3z M142.2,249.9L142.2,249.9v17.2c7.5,0.1,15,0.7,21.8,1.8c2.3-6.1,3.7-12.5,4-19L142.2,249.9
		L142.2,249.9z M142.2,272.7L142.2,272.7v23.4c8.2-5.4,14.5-12.5,18.8-20.5c0.3-0.5,0.5-0.9,0.7-1.4
		C155.6,273.3,148.9,272.8,142.2,272.7z M136.6,296.1L136.6,296.1v-23.4c-6.7,0.1-13.4,0.6-19.5,1.5c0.2,0.5,0.5,0.9,0.7,1.4
		C122.2,283.6,128.4,290.7,136.6,296.1z M136.6,267.2L136.6,267.2v-17.2h-25.8c0.3,6.5,1.6,12.9,4,19
		C121.6,267.9,129.1,267.3,136.6,267.2z M136.6,244.4L136.6,244.4v-19.1c-7.3-0.1-14.5-0.7-21.2-1.7c-2.8,6.6-4.3,13.7-4.6,20.8
		H136.6z M136.6,219.8L136.6,219.8v-21.5c-8.2,5.3-14.4,12.3-18.7,20.2l0,0C123.8,219.2,130.2,219.6,136.6,219.8z"/>
	<path class="st6" d="M93.5,303.3h163.4v6.1c-7.7,11-6.5,23.2,0,32.3v6.1H93.5C67.9,347.9,67.9,303.3,93.5,303.3L93.5,303.3z"/>
	<path class="st4" d="M256.9,341.8c-6.6-10.8-7.1-21.5,0-32.3H93.5c-7.7,0-14,7.3-14,16.2c0,8.9,6.3,16.1,14,16.1L256.9,341.8
		L256.9,341.8z"/>
	<g class="st7">
		<path class="st8" d="M255.3,312c0.5-0.9,1-1.7,1.6-2.6H93.5c-15.6,0-20,24.9-4.2,31.5c-10.8-5.8-6.7-25.7,4.6-28.9L255.3,312
			L255.3,312z"/>
		<path class="st8" d="M253.7,315.1H82.9c0.3-0.4,0.7-0.8,1-1.2h170.4C254.1,314.3,253.9,314.7,253.7,315.1L253.7,315.1z
			 M81.4,317.4L81.4,317.4c-0.2,0.4-0.4,0.8-0.6,1.2h171.6c0.1-0.4,0.2-0.8,0.4-1.2H81.4z M80.1,320.9L80.1,320.9
			c-0.1,0.4-0.2,0.8-0.3,1.2h172c0.1-0.4,0.1-0.8,0.2-1.2H80.1z M79.5,324.5L79.5,324.5c0,0.4,0,0.8,0,1.1l0,0.1h172.1
			c0-0.4,0-0.8,0-1.2L79.5,324.5L79.5,324.5z M79.6,328L79.6,328c0.1,0.4,0.1,0.8,0.2,1.2h172c-0.1-0.4-0.1-0.8-0.1-1.2H79.6z
			 M80.5,331.5L80.5,331.5c0.1,0.4,0.3,0.8,0.5,1.2h171.6c-0.1-0.4-0.2-0.8-0.3-1.2H80.5z M82.1,335L82.1,335
			c0.3,0.4,0.5,0.8,0.8,1.2h170.8c-0.2-0.4-0.3-0.8-0.5-1.2H82.1z M85.1,338.5L85.1,338.5c0.5,0.4,1.1,0.9,1.6,1.2h168.8
			c-0.2-0.4-0.5-0.8-0.7-1.2H85.1L85.1,338.5z"/>
	</g>
	<path class="st9" d="M282.8,347.9h-201v8.3c9.5,14.9,7.9,31.4,0,43.8v8.3h201C314.2,408.2,314.2,347.9,282.8,347.9L282.8,347.9z"/>
	<path class="st4" d="M81.8,399.9c8.1-14.6,8.7-29.2,0-43.8h201c9.5,0,17.2,9.9,17.2,21.9c0,12-7.8,21.9-17.2,21.9H81.8z"/>
	<g class="st7">
		<path class="st8" d="M83.7,359.7c-0.6-1.2-1.2-2.4-1.9-3.5h201c19.2,0,24.6,33.7,5.2,42.7c13.2-7.9,8.3-34.8-5.6-39.2L83.7,359.7
			L83.7,359.7z"/>
		<path class="st8" d="M85.7,363.9h210.1c-0.4-0.6-0.8-1.1-1.2-1.7H85C85.2,362.8,85.5,363.3,85.7,363.9z M297.6,367L297.6,367
			c0.3,0.5,0.5,1.1,0.7,1.7H87.2c-0.1-0.6-0.3-1.1-0.4-1.7H297.6z M299.2,371.8L299.2,371.8c0.1,0.5,0.2,1.1,0.3,1.7H88.1
			c-0.1-0.6-0.1-1.1-0.2-1.7H299.2z M299.9,376.5L299.9,376.5c0,0.5,0,1,0,1.5v0.1H88.3c0-0.5,0-1.1,0-1.7H299.9L299.9,376.5z
			 M299.8,381.3L299.8,381.3c-0.1,0.6-0.1,1.1-0.2,1.7H88c0.1-0.5,0.1-1.1,0.2-1.7H299.8L299.8,381.3z M298.8,386.1L298.8,386.1
			c-0.2,0.6-0.4,1.1-0.6,1.6H87.1c0.1-0.5,0.3-1.1,0.4-1.6H298.8L298.8,386.1z M296.7,390.8L296.7,390.8c-0.3,0.6-0.7,1.1-1,1.7
			H85.6c0.2-0.5,0.4-1.1,0.6-1.7H296.7z M293,395.6L293,395.6c-0.6,0.6-1.3,1.2-2,1.7H83.4c0.3-0.5,0.6-1.1,0.8-1.7H293z"/>
	</g>
	<path class="st10" d="M236.1,264.9H114.6v5.3c5.8,9.5,4.8,20,0,27.9v5.3h121.5C255.1,303.3,255.1,264.9,236.1,264.9L236.1,264.9z"
		/>
	<path class="st4" d="M114.6,298c4.9-9.3,5.3-18.6,0-27.9h121.5c5.7,0,10.4,6.3,10.4,13.9c0,7.7-4.7,13.9-10.4,13.9L114.6,298
		L114.6,298z"/>
	<g class="st7">
		<path class="st8" d="M115.8,272.4c-0.4-0.7-0.7-1.5-1.2-2.2h121.5c11.6,0,14.9,21.5,3.2,27.2c8-5,5-22.2-3.4-25H115.8z"/>
		<path class="st8" d="M117,275.1h127c-0.2-0.4-0.5-0.7-0.7-1.1H116.5C116.7,274.4,116.8,274.7,117,275.1L117,275.1z M245,277.1
			L245,277.1c0.2,0.3,0.3,0.7,0.4,1H117.9c-0.1-0.4-0.2-0.7-0.3-1H245L245,277.1z M246,280.1L246,280.1c0.1,0.3,0.1,0.7,0.2,1H118.4
			c0-0.4-0.1-0.7-0.1-1H246L246,280.1z M246.4,283.1L246.4,283.1c0,0.3,0,0.7,0,1l0,0.1H118.6c0-0.4,0-0.7,0-1.1L246.4,283.1
			L246.4,283.1z M246.4,286.2L246.4,286.2c0,0.4-0.1,0.7-0.1,1.1H118.4c0-0.4,0.1-0.7,0.1-1.1H246.4L246.4,286.2z M245.7,289.2
			L245.7,289.2c-0.1,0.4-0.2,0.7-0.4,1H117.8c0.1-0.3,0.2-0.7,0.2-1H245.7L245.7,289.2z M244.5,292.2L244.5,292.2
			c-0.2,0.4-0.4,0.7-0.6,1h-127c0.1-0.3,0.2-0.7,0.4-1H244.5z M242.3,295.3L242.3,295.3c-0.4,0.4-0.8,0.7-1.2,1.1H115.6
			c0.2-0.3,0.3-0.7,0.5-1.1H242.3z"/>
	</g>
	<path class="st11" d="M394,102.1H261.7V296H394c10.9,0,19.8-9.1,19.8-20.3V122.4C413.8,111.2,404.9,102.1,394,102.1L394,102.1z"/>
	<path class="st4" d="M388.5,95.4H261.7v193.9h126.8c10.4,0,19-8.7,19-19.4V114.9C407.4,104.2,398.9,95.4,388.5,95.4z"/>
	<path class="st9" d="M394,77.4H261.7v193.9h152.1V97.6C413.8,86.5,404.9,77.4,394,77.4L394,77.4z"/>
	<path class="st11" d="M397,271.3h16.8V97.6c0-10.1-7.3-18.6-16.8-20V271.3z"/>
	<path class="st12" d="M399.8,285.5H261.7v1.5h135.7C398.3,286.6,399,286.1,399.8,285.5z M261.7,273.9L261.7,273.9v1.5h145
		c0.1-0.5,0.3-1,0.4-1.5H261.7z M261.7,277.7L261.7,277.7v1.5h143.4c0.3-0.5,0.5-1,0.7-1.5H261.7z M261.7,281.6L261.7,281.6v1.5
		h140.6c0.4-0.5,0.9-1,1.3-1.5H261.7z"/>
	<path class="st4" d="M362.1,240.2h-49.6v3h49.6V240.2z M352.7,245.4L352.7,245.4h-30.8v3h30.8V245.4z"/>
	<path class="st13" d="M418,198.9l-18-5.2l-26,5.7c-1.2,3.4,2.9,6.8,6.2,7.1l19.7-1.5l13.8,5.8v2l-20.6-4.9l-25.5,7.5
		c0.4,10.4,7.2,7.7,24,3.5l22.1,7.7v2.6l-16.8-3.6l-21.1,5.1c-0.2,10.5,7.5,7.3,21.1,5.8l16.8,3.8v4.2l-16.7-1l-16.2,4.7
		c-2.6,1.2-2.1,6.1,1.6,7.1l14.5-1.7l16.6,2.2l0.2,16.4c1.4,10.6-5.3,21.2-15.1,23.1l-14.8,0.8l-4.4,26.6H416l-2.5-32.4
		c5.5-12.8,16.7-29.5,10-43.8c3.5-5.8,2.3-11.2-0.4-14.4c2.5-3.6,5.9-9.9,0.4-14.6C422.9,207.7,425.7,204.5,418,198.9L418,198.9z"/>
	<path class="st14" d="M383.9,296l-4.4,26.6l14-27.1L383.9,296z"/>
	<path class="st10" d="M423,322.4l6.8,85.8h-66.2l9.6-85.8H423L423,322.4z"/>
	<g class="st7">
		<path class="st15" d="M420.7,316.3h-44.5v6.4h44.5V316.3z"/>
		<path class="st15" d="M417.6,328c1.7,0,3.1,1.4,3.1,3.1c0,1.7-1.4,3.1-3.1,3.1c-1.7,0-3.1-1.4-3.1-3.1
			C414.5,329.4,415.9,328,417.6,328z"/>
		<path class="st15" d="M418.4,336c1.7,0,3.1,1.4,3.1,3.1c0,1.7-1.4,3.1-3.1,3.1s-3.1-1.4-3.1-3.1C415.3,337.4,416.7,336,418.4,336z
			"/>
	</g>
	<g class="st7">
		<path class="st16" d="M375,202.3l4.7-1.2l-0.8-2.2l-4.9,1C373.9,200.3,374,201.4,375,202.3L375,202.3z"/>
		<path class="st16" d="M369.7,219.7l6-2.3l-1.3-3.6l-6,1.8C368.2,216.5,368.3,218,369.7,219.7L369.7,219.7z"/>
		<path class="st16" d="M377.9,235.6l5.3-1.8l-1.2-3.9l-5.2,1.2C376.5,232,376.6,233.7,377.9,235.6L377.9,235.6z"/>
		<path class="st16" d="M381.2,248.8l3.8-1.1l1.2,4.7l-4.5,1.1C381.7,253.5,378.9,250.4,381.2,248.8z"/>
	</g>
	<path class="st17" d="M228.9,151.3l-28-0.1l-0.5-40.7l27.1,1.4c1.8-3.9,14-12.2,17.3-13.3l16.9-2v8.6l28.3-1.5l28.8,5.1
		c1.7,0,3,7.6-5.8,7.2l-22.9-1.1l-14.1,2.7l20,0.1l27.2,4.2c3.1,0.5,1.3,8.2-6.5,8.4l-20.2-2.1l-20.4,2.1l21,1.2l21.8,3.4
		c3.9,0.6,3.3,8.3-4.4,7.7l-17.8-1.5l-20.5,2.8l18,1.5l18.6,5.1c1.5,0.4,2,6.9-8.3,5.7l-11.9-1.4C277.3,156,240.5,162.6,228.9,151.3
		z"/>
	<path class="st14" d="M228.9,151.3l-28-0.1l0-1.5l28.2,0.3c12.4,11.8,47.6,5.4,63.6,4.1c0,0,11.1,1.9,16.1,1.5
		c5.7-0.8,4.5-4.9,4-5.2c1.5,0.4,2,6.9-8.3,5.7l-11.9-1.4C277.3,156,240.5,162.6,228.9,151.3L228.9,151.3z"/>
	<path class="st18" d="M200.4,107.3l0.6,47.7l-180.3,0.2c8.6-20.2,19.8-39,33-56.1L200.4,107.3z"/>
	<path class="st4" d="M208.9,108.7l0.7,44.8l-8.7,0l-0.7-44.8L208.9,108.7L208.9,108.7z"/>
	<path class="st5" d="M191.2,144.8c0,2.5-1.9,4.5-4.3,4.5c-2.4,0-4.4-2-4.4-4.4c0-2.5,1.9-4.5,4.3-4.5
		C189.3,140.3,191.2,142.3,191.2,144.8z"/>
	<g class="st7">
		<path class="st16" d="M313.3,108.5l5.3,0.6c0.5,1.1,0.5,2,0.2,2.6l-6.1-0.3L313.3,108.5z"/>
		<path class="st16" d="M317.9,121.5l5.3,0.6c0.5,1.2,0.5,2,0.2,2.6l-6.1-0.3L317.9,121.5z"/>
		<path class="st16" d="M313.9,134.7l5.3,0.6c0.5,1.1,0.5,2,0.2,2.6l-6.1-0.4L313.9,134.7L313.9,134.7z"/>
		<path class="st16" d="M307.2,149.4l5.3,1.2c0.5,1.2,0.5,2,0.2,2.6l-6.1-1L307.2,149.4L307.2,149.4z"/>
	</g>
</g>
<g id="Layer_2" class="st0">
	<g class="st7">
		<g>
			<path class="st19" d="M99.9,167C182,275.3,212,181.5,257.3,181.8c23.7,0.1,41.2,97.7,157.4-15.4C414.5,79.4,343.9,9.1,257,9.2
				C170.1,9.4,99.7,80,99.9,167z"/>
			<path class="st19" d="M414.7,166.4c-17.1,98.2-64.5,110.4-90.2,213.1c-56.1,37.5-51.8,28.9-142.3,7.7
				C169.1,292.6,100,235.8,99.9,167C95.4,64.2,401.6,83.7,414.7,166.4z"/>
			<g>
				<path class="st20" d="M328.5,196.4c0,0-29.7,68.6-38.7,94c-9,25.4-9.1,86.1-9.1,86.1"/>
				<path class="st20" d="M175.3,196.7c0,0,30,68.4,39,93.8c9.1,25.4,9.4,86.1,9.4,86.1"/>
			</g>
			<path class="st21" d="M307.6,427l0.1,48.6c0,14.9-9.6,27.1-21.6,27.1l-64.9,0.1c-11.9,0-21.7-12.1-21.7-27l-0.1-48.6L307.6,427z"
				/>
			<path class="st22" d="M334.4,367.3l0.2,78.8c0,14.9-12.1,27.1-27,27.1l-108.1,0.2c-14.9,0-27.1-12.1-27.1-27l-0.2-78.8
				L334.4,367.3z"/>
			<g>
				<path class="st23" d="M283.4,221.6c0,11.4,7.1,20.6,15.7,20.6c8.7,0,15.7-9.3,15.7-20.6c0-11.4-7.1-20.6-15.7-20.6
					C290.4,200.9,283.4,210.2,283.4,221.6z"/>
				<path class="st23" d="M252,221.6c0,11.4,7.1,20.6,15.7,20.6c8.7,0,15.7-9.3,15.7-20.6c0-11.4-7.1-20.6-15.7-20.6
					C259,201,251.9,210.3,252,221.6z"/>
				<path class="st23" d="M220.6,221.7c0,11.4,7.1,20.6,15.7,20.6c8.7,0,15.7-9.3,15.7-20.6c0-11.4-7.1-20.6-15.8-20.6
					C227.5,201.1,220.5,210.3,220.6,221.7z"/>
				<path class="st23" d="M189.1,221.7c0,11.4,7.1,20.6,15.7,20.6c8.7,0,15.7-9.3,15.7-20.6c0-11.4-7.1-20.6-15.7-20.6
					C196.1,201.1,189.1,210.4,189.1,221.7z"/>
			</g>
			<path class="st24" d="M306.8,38.1C267.9,9.5,198.7,34,173,52.7c-35.6,26-61.9,83.3-57.7,120.3c4.2,37,19.9,56.5,34.5,90.9
				c5.2,12.2-17.8-37.3,9.9-104.2c20.7-49.9,80.6-62.8,120.4-67.4C308,89,345.5,66.5,306.8,38.1z"/>
			<path class="st25" d="M166.8,391.4c0,2.1,1.7,3.9,3.7,3.9l166.5-0.3c2,0,3.7-1.7,3.7-3.9l0-6.8c0-2.1-1.7-3.9-3.7-3.9l-166.5,0.3
				c-2,0-3.7,1.7-3.7,3.9L166.8,391.4z"/>
			<path class="st25" d="M166.9,414.6c0,2.1,1.7,3.9,3.7,3.9l166.5-0.3c2,0,3.7-1.8,3.7-3.9l0-6.8c0-2.1-1.7-3.9-3.7-3.9L170.6,404
				c-2,0-3.7,1.7-3.7,3.9L166.9,414.6z"/>
			<path class="st25" d="M166.5,437.9c0,2.1,1.7,3.9,3.7,3.9l166.5-0.3c2,0,3.7-1.7,3.7-3.9l0-6.8c0-2.1-1.7-3.9-3.7-3.9l-166.5,0.3
				c-2,0-3.7,1.8-3.7,3.9L166.5,437.9z"/>
		</g>
	</g>
</g>
<g id="Layer_3">
	<g>
		<g>
			<g>
				<g>
					<g>
						<g>
							<path class="st27" d="M328.1,170.6c18.2-33.7,36-26.3,31.2-75.5c0,0-59.3-17.5-59.1-75.8c0,0-21,10.8-38.8,11.5
								c-17.9,0.7-38.5-14.2-38.5-14.2s4.7,62.9-45.7,76.1c-6.2,51.1,6.1,56,35.9,82.2C234.9,194.2,311.3,201.6,328.1,170.6z"/>
						</g>
						<g>
							<path class="st28" d="M405.6-144.4c6.6-203.1-144.7-188.4-144.7-188.4c-0.1,0-151.3-14.7-144.7,188.4
								c0,0-0.2,84.8,22.6,116.5c29.9,41.7,84.8,63.5,122.2,63.5c37.4,0,92.7-19,122.2-63.5C406.3-62.9,405.6-144.4,405.6-144.4z"/>
						</g>
					</g>
					<g>
						<g>
							<rect x="194.6" y="119.6" class="st16" width="152.2" height="189.9"/>
							<g>
								<polygon class="st35" points="211.3,67.2 262.8,119.1 225.2,171.9 168.4,95.1 208.6,71.3 								"/>
								<polygon class="st35" points="317.3,67.3 261.4,119.1 299,171.9 353.1,91.4 319.1,71.3 								"/>
							</g>
							<g>
								<path class="st36" d="M305.8,506.7l-30.7-337.5h-12h-1.8h-12l-30.7,337.5c0,0,0.3,26.3,42.7,47.6c0,0,0.6,0.6,0.9,0.5
									c0.3,0.2,0.9-0.5,0.9-0.5C305.6,532.9,305.8,506.7,305.8,506.7z"/>
								<polygon class="st37" points="262.9,119.9 262.6,119.6 262.4,119.9 239.7,151 247.8,169.9 276.3,169.9 284.7,149.9 								
									"/>
							</g>
							<polygon class="st22" points="452.5,612.9 78.4,612.9 93.3,312.9 437.6,312.9 							"/>
							<g>
								<g>
									<path class="st22" d="M415,340.4c0,16.4,13.4,29.8,29.8,29.8h7.3c16.4,0,29.8-13.4,29.8-29.8V200
										c0-16.4-13.4-29.8-29.8-29.8h-7.3c-16.4,0-29.8,13.4-29.8,29.8V340.4z"/>
									<g>
										<path class="st22" d="M347.2,92.7l-81,246.4L177.1,92.7c0,0-111.1,14.1-134.7,36.4v73.3l33.5,129.2l182.3,7.4v0.3l4-0.2
											l4,0.2v-0.3l182.3-7.4L482,202.5v-73.3C458.4,106.8,347.2,92.7,347.2,92.7z"/>
										<path class="st22" d="M109.4,340.4c0,16.4-13.4,29.8-29.8,29.8h-7.3c-16.4,0-29.8-13.4-29.8-29.8V200
											c0-16.4,13.4-29.8,29.8-29.8h7.3c16.4,0,29.8,13.4,29.8,29.8V340.4z"/>
									</g>
								</g>
								<g>
									<g>
										<polygon class="st38" points="208.6,71.3 168.4,95.1 157.6,127.1 187.8,134.4 169.2,170.2 263.1,333.4 										"/>
									</g>
									<g>
										<polygon class="st38" points="319.1,71.3 359.3,95.1 370.1,127.1 339.9,134.4 358.5,170.2 264.6,333.4 										"/>
									</g>
								</g>
							</g>
						</g>
					</g>
				</g>
				<g>
					<g>
						<path class="st27" d="M366.7,309.1c-11.9,2-23.1-5-24.9-15.5l-3.1-19.1c-1.7-10.5,6.6-20.7,18.6-22.6l13.3-2.2
							c11.9-2,23.1,5,24.9,15.5l3.1,19.1c1.7,10.5-6.6,20.6-18.6,22.6L366.7,309.1z"/>
						<path class="st39" d="M350.7,246.5c-0.4,0.1-283.8,60.1-283.8,60.1c-15.9,3.9-25.8,20.1-21.8,36.1l1.7,7.1
							c3.9,15.9,20.1,25.8,36.1,21.8l282.2-59.8L350.7,246.5z"/>
					</g>
					<g>
						<path class="st27" d="M159.5,309.1c11.9,2,23.1-5,24.9-15.5l3.1-19.1c1.7-10.5-6.6-20.7-18.6-22.6l-13.3-2.2
							c-11.9-2-23.1,5-24.9,15.5l-3.1,19.1c-1.7,10.5,6.6,20.6,18.6,22.6L159.5,309.1z"/>
						<path class="st40" d="M175.5,246.5c0.4,0.1,283.8,60.1,283.8,60.1c15.9,3.9,25.8,20.1,21.8,36.1l-1.7,7.1
							c-3.9,15.9-20.1,25.8-36.1,21.8l-282.2-59.8L175.5,246.5z"/>
					</g>
				</g>
			</g>
		</g>
	</g>
</g>
</svg>
